<svg width="320" height="260" viewBox="0 0 320 260" fill="none" xmlns="http://www.w3.org/2000/svg">
  <!-- Decorative Sparkles and Stars (Yellow fills) -->
  <path d="M50 82c5 0 9-4 9-9s-4-9-9-9-9 4-9 9 4 9 9 9z" fill="#FEDF6F" opacity="0.3"/>
  <path d="M50 82c2 0 4-2 4-5s-2-5-4-5-4 2-4 5 2 5 4 5z" fill="#FEDF6F"/>
  <path d="M175 35c3 0 5-2 5-5s-2-5-5-5-5 2-5 5 2 5 5 5z" fill="#FEDF6F"/>
  <path d="M280 120c4 0 7-3 7-7s-3-7-7-7-7 3-7 7 3 7 7 7z" fill="#FEDF6F"/>
  <path d="M83 133c2 0 4-2 4-4s-2-4-4-4-4 2-4 4 2 4 4 4z" fill="#FEDF6F"/>
  <path d="M234 94c2 0 4-2 4-4s-2-4-4-4-4 2-4 4 2 4 4 4z" fill="#FEDF6F"/>
  
  <!-- Sparkle Stars -->
  <!-- Left Star -->
  <path d="M20 110q6 0 6-6q0 6 6 0q-6 0-6 6q0-6-6 0" stroke="#FEDF6F" stroke-width="2.5" stroke-linecap="round" fill="#FEDF6F"/>
  <!-- Top Left Sparkle -->
  <path d="M60 40l3 5m7-2l-5-3" stroke="#FEDF6F" stroke-width="2" stroke-linecap="round"/>
  
  <!-- Man Illustration -->
  <!-- Shirt Fill (Yellow) -->
  <path d="M63 214c0 0 30-22 62-22s63 22 63 22v34H63v-34z" fill="#FEDF6F"/>
  <path d="M63 214c15 1 35-18 62-18s47 19 63 18" stroke="#231F20" stroke-width="2.5" stroke-linecap="round"/>
  <path d="M96 211c4 10 16 26 29 26s24-16 28-26" fill="#FFFFFF" stroke="#231F20" stroke-width="2.5" stroke-linecap="round"/>

  <!-- Neck -->
  <path d="M110 185v15c0 8 10 14 15 14s15-6 15-14v-15" fill="#FFFFFF" stroke="#231F20" stroke-width="2.5" stroke-linecap="round"/>

  <!-- Face / Jawline -->
  <path d="M100 135c0 28 15 45 25 45s25-17 25-45V125h-50v10z" fill="#FFFFFF"/>
  <path d="M100 128v10c0 25 10 42 25 42s25-17 25-42v-10" stroke="#231F20" stroke-width="2.5" stroke-linecap="round" stroke-linejoin="round"/>

  <!-- Ears -->
  <path d="M100 138c-3 0-5 3-5 6s2 6 5 6" fill="#FFFFFF" stroke="#231F20" stroke-width="2.5" stroke-linecap="round" stroke-linejoin="round"/>
  <path d="M150 138c3 0 5 3 5 6s-2 6-5 6" fill="#FFFFFF" stroke="#231F20" stroke-width="2.5" stroke-linecap="round" stroke-linejoin="round"/>

  <!-- Hair Outline & Fills -->
  <path d="M96 125c5-10 15-18 29-18s24 6 29 18c6-5 14-3 14-3s-2-12-10-18c-10-7-25-10-33-3s-14 3-21 7s-10 11-10 11c0 0 1 5 2 6z" fill="#231F20"/>
  <path d="M96 125c5-10 15-18 29-18s24 6 29 18" stroke="#231F20" stroke-width="2.5" stroke-linecap="round" stroke-linejoin="round"/>
  
  <!-- Face details -->
  <!-- Eyes -->
  <path d="M111 131q4-3 8 0" stroke="#231F20" stroke-width="2.5" stroke-linecap="round" fill="none"/>
  <path d="M131 131q4-3 8 0" stroke="#231F20" stroke-width="2.5" stroke-linecap="round" fill="none"/>
  <!-- Smile -->
  <path d="M115 147c2 8 10 12 15 12s13-4 15-12h-30z" fill="#231F20"/>
  <path d="M113 147c4 10 13 14 17 14s13-4 17-14" stroke="#231F20" stroke-width="2.5" stroke-linecap="round" fill="none"/>
  <path d="M110 148c3 0 4-2 4-2" stroke="#231F20" stroke-width="2.5" stroke-linecap="round"/>
  <path d="M140 148c-3 0-4-2-4-2" stroke="#231F20" stroke-width="2.5" stroke-linecap="round"/>
  <!-- Nose -->
  <path d="M125 136q0 4 3 4" stroke="#231F20" stroke-width="2.5" stroke-linecap="round" fill="none"/>

  <!-- Hands / Phone holding -->
  <!-- Hand 1 (Right arm rising, holding phone) -->
  <path d="M178 190c-5-2-10 3-8 10l8 24h18v-24l-18-10z" fill="#FFFFFF"/>
  <!-- Smartphone -->
  <rect x="180" y="145" width="38" height="68" rx="8" fill="#FEDF6F" stroke="#231F20" stroke-width="2.5"/>
  <circle cx="187" cy="152" r="2" fill="#231F20"/>
  
  <!-- Fingers wrapping around smartphone -->
  <path d="M178 160h8c2 0 3 1.5 3 3s-1 3-3 3h-8" stroke="#231F20" stroke-width="2.5" stroke-linecap="round" fill="#FFFFFF"/>
  <path d="M178 168h10c2 0 3 1.5 3 3s-1 3-3 3h-10" stroke="#231F20" stroke-width="2.5" stroke-linecap="round" fill="#FFFFFF"/>
  <path d="M178 176h10c2 0 3 1.5 3 3s-1 3-3 3h-10" stroke="#231F20" stroke-width="2.5" stroke-linecap="round" fill="#FFFFFF"/>
  <path d="M182 184h6c2 0 3 1.5 3 3s-1 3-3 3h-6" stroke="#231F20" stroke-width="2.5" stroke-linecap="round" fill="#FFFFFF"/>

  <!-- Hand 2 (Left arm pointing at screen) -->
  <path d="M125 214l12-24c1-2 4-2 5 0l16 24h-33z" fill="#FFFFFF"/>
  <!-- Pointing Finger -->
  <path d="M152 182c0-5-3-8-6-8s-5 3-5 8v16h11v-16z" fill="#FFFFFF" stroke="#231F20" stroke-width="2.5" stroke-linecap="round" stroke-linejoin="round"/>
  <path d="M141 190c-2 0-3 2-3 4v16h21v-16c0-2-1-4-3-4h-15z" fill="#FFFFFF" stroke="#231F20" stroke-width="2.5" stroke-linecap="round" stroke-linejoin="round"/>

  <!-- Floating Callout Speech Bubble (Laughing emoji inside) -->
  <!-- Bubble Body -->
  <path d="M195 72c0-14 16-25 36-25s36 11 36 25c0 10-8 19-21 23l-3 7c-1 2-4 2-5 0l-1-7c-26-3-42-13-42-23z" fill="#FFFFFF" stroke="#231F20" stroke-width="2.5" stroke-linejoin="round"/>
  
  <!-- Emoji Base (Circle inside bubble) -->
  <circle cx="231" cy="71" r="16" fill="#FEDF6F" stroke="#231F20" stroke-width="2"/>
  <!-- Emoji squinting laughing eyes -->
  <path d="M222 69l3 2-3 2" stroke="#231F20" stroke-width="2" stroke-linecap="round" stroke-linejoin="round" fill="none"/>
  <path d="M240 69l-3 2 3 2" stroke="#231F20" stroke-width="2" stroke-linecap="round" stroke-linejoin="round" fill="none"/>
  <!-- Emoji big wide laugh -->
  <path d="M225 76c1 5 5 7 6 7s5-2 6-7h-12z" fill="#231F20" stroke="#231F20" stroke-width="1.5" stroke-linejoin="round"/>
  <!-- Tears of Joy (Sweat drops next to emoji) -->
  <path d="M211 65c-1-1-3 0-3 2s2 3 3 2 1-3 0-4z" fill="#8ED5FA"/>
  <path d="M251 65c1-1 3 0 3 2s-2 3-3 2-1-3 0-4z" fill="#8ED5FA"/>
</svg>
